<svg width="142" height="24" viewBox="0 0 142 24" fill="none" xmlns="http://www.w3.org/2000/svg">
<path d="M0.96 12.016C0.96 10.1707 1.26933 8.73067 1.888 7.696C2.51733 6.65067 3.59467 6.128 5.12 6.128C6.64533 6.128 7.71733 6.65067 8.336 7.696C8.96533 8.73067 9.28 10.1707 9.28 12.016C9.28 13.8827 8.96533 15.344 8.336 16.4C7.71733 17.4453 6.64533 17.968 5.12 17.968C3.59467 17.968 2.51733 17.4453 1.888 16.4C1.26933 15.344 0.96 13.8827 0.96 12.016ZM7.488 12.016C7.488 11.152 7.42933 10.4213 7.312 9.824C7.20533 9.22667 6.98133 8.74133 6.64 8.368C6.29867 7.984 5.792 7.792 5.12 7.792C4.448 7.792 3.94133 7.984 3.6 8.368C3.25867 8.74133 3.02933 9.22667 2.912 9.824C2.80533 10.4213 2.752 11.152 2.752 12.016C2.752 12.912 2.80533 13.664 2.912 14.272C3.01867 14.88 3.24267 15.3707 3.584 15.744C3.936 16.1173 4.448 16.304 5.12 16.304C5.792 16.304 6.29867 16.1173 6.64 15.744C6.992 15.3707 7.22133 14.88 7.328 14.272C7.43467 13.664 7.488 12.912 7.488 12.016ZM10.97 8V6.336H14.298V18H12.458V8H10.97Z" fill="#616161"/>
<path d="M24 12H51" stroke="#616161"/>
<path d="M66.152 12.288C66.7493 12.3947 67.256 12.7093 67.672 13.232C68.088 13.7547 68.296 14.3467 68.296 15.008C68.296 15.5733 68.1467 16.0853 67.848 16.544C67.56 16.992 67.1387 17.3493 66.584 17.616C66.0293 17.872 65.384 18 64.648 18H60.2V6.88H64.44C65.1973 6.88 65.848 7.008 66.392 7.264C66.936 7.52 67.3467 7.86667 67.624 8.304C67.9013 8.73067 68.04 9.21067 68.04 9.744C68.04 10.384 67.8693 10.9173 67.528 11.344C67.1867 11.7707 66.728 12.0853 66.152 12.288ZM62.024 11.552H64.28C64.8773 11.552 65.3413 11.4187 65.672 11.152C66.0133 10.8747 66.184 10.48 66.184 9.968C66.184 9.46667 66.0133 9.07733 65.672 8.8C65.3413 8.512 64.8773 8.368 64.28 8.368H62.024V11.552ZM64.488 16.512C65.1067 16.512 65.592 16.3627 65.944 16.064C66.296 15.7653 66.472 15.3493 66.472 14.816C66.472 14.272 66.2853 13.84 65.912 13.52C65.5387 13.2 65.0427 13.04 64.424 13.04H62.024V16.512H64.488ZM78.3581 13.376C78.3581 13.7067 78.3368 14.0053 78.2941 14.272H71.5581C71.6115 14.976 71.8728 15.5413 72.3421 15.968C72.8115 16.3947 73.3875 16.608 74.0701 16.608C75.0515 16.608 75.7448 16.1973 76.1501 15.376H78.1181C77.8515 16.1867 77.3661 16.8533 76.6621 17.376C75.9688 17.888 75.1048 18.144 74.0701 18.144C73.2275 18.144 72.4701 17.9573 71.7981 17.584C71.1368 17.2 70.6141 16.6667 70.2301 15.984C69.8568 15.2907 69.6701 14.4907 69.6701 13.584C69.6701 12.6773 69.8515 11.8827 70.2141 11.2C70.5875 10.5067 71.1048 9.97333 71.7661 9.6C72.4381 9.22667 73.2061 9.04 74.0701 9.04C74.9021 9.04 75.6435 9.22133 76.2941 9.584C76.9448 9.94667 77.4515 10.4587 77.8141 11.12C78.1768 11.7707 78.3581 12.5227 78.3581 13.376ZM76.4541 12.8C76.4435 12.128 76.2035 11.5893 75.7341 11.184C75.2648 10.7787 74.6835 10.576 73.9901 10.576C73.3608 10.576 72.8221 10.7787 72.3741 11.184C71.9261 11.5787 71.6595 12.1173 71.5741 12.8H76.4541ZM79.5451 13.552C79.5451 12.6667 79.7265 11.8827 80.0891 11.2C80.4625 10.5173 80.9638 9.98933 81.5931 9.616C82.2331 9.232 82.9425 9.04 83.7211 9.04C84.2971 9.04 84.8625 9.168 85.4171 9.424C85.9825 9.66933 86.4305 10 86.7611 10.416V6.16H88.6011V18H86.7611V16.672C86.4625 17.0987 86.0465 17.4507 85.5131 17.728C84.9905 18.0053 84.3878 18.144 83.7051 18.144C82.9371 18.144 82.2331 17.952 81.5931 17.568C80.9638 17.1733 80.4625 16.6293 80.0891 15.936C79.7265 15.232 79.5451 14.4373 79.5451 13.552ZM86.7611 13.584C86.7611 12.976 86.6331 12.448 86.3771 12C86.1318 11.552 85.8065 11.2107 85.4011 10.976C84.9958 10.7413 84.5585 10.624 84.0891 10.624C83.6198 10.624 83.1825 10.7413 82.7771 10.976C82.3718 11.2 82.0411 11.536 81.7851 11.984C81.5398 12.4213 81.4171 12.944 81.4171 13.552C81.4171 14.16 81.5398 14.6933 81.7851 15.152C82.0411 15.6107 82.3718 15.9627 82.7771 16.208C83.1931 16.4427 83.6305 16.56 84.0891 16.56C84.5585 16.56 84.9958 16.4427 85.4011 16.208C85.8065 15.9733 86.1318 15.632 86.3771 15.184C86.6331 14.7253 86.7611 14.192 86.7611 13.584ZM100.929 18L98.3691 13.552H96.9771V18H95.1531V6.88H98.9931C99.8465 6.88 100.566 7.02933 101.153 7.328C101.75 7.62667 102.193 8.02667 102.481 8.528C102.78 9.02933 102.929 9.58933 102.929 10.208C102.929 10.9333 102.716 11.5947 102.289 12.192C101.873 12.7787 101.228 13.1787 100.353 13.392L103.105 18H100.929ZM96.9771 12.096H98.9931C99.6758 12.096 100.188 11.9253 100.529 11.584C100.881 11.2427 101.057 10.784 101.057 10.208C101.057 9.632 100.886 9.184 100.545 8.864C100.204 8.53333 99.6865 8.368 98.9931 8.368H96.9771V12.096ZM109.087 18.144C108.255 18.144 107.503 17.9573 106.831 17.584C106.159 17.2 105.631 16.6667 105.247 15.984C104.863 15.2907 104.671 14.4907 104.671 13.584C104.671 12.688 104.868 11.8933 105.263 11.2C105.657 10.5067 106.196 9.97333 106.879 9.6C107.561 9.22667 108.324 9.04 109.167 9.04C110.009 9.04 110.772 9.22667 111.455 9.6C112.137 9.97333 112.676 10.5067 113.071 11.2C113.465 11.8933 113.663 12.688 113.663 13.584C113.663 14.48 113.46 15.2747 113.055 15.968C112.649 16.6613 112.095 17.2 111.391 17.584C110.697 17.9573 109.929 18.144 109.087 18.144ZM109.087 16.56C109.556 16.56 109.993 16.448 110.399 16.224C110.815 16 111.151 15.664 111.407 15.216C111.663 14.768 111.791 14.224 111.791 13.584C111.791 12.944 111.668 12.4053 111.423 11.968C111.177 11.52 110.852 11.184 110.447 10.96C110.041 10.736 109.604 10.624 109.135 10.624C108.665 10.624 108.228 10.736 107.823 10.96C107.428 11.184 107.113 11.52 106.879 11.968C106.644 12.4053 106.527 12.944 106.527 13.584C106.527 14.5333 106.767 15.2693 107.247 15.792C107.737 16.304 108.351 16.56 109.087 16.56ZM119.29 18.144C118.458 18.144 117.706 17.9573 117.034 17.584C116.362 17.2 115.834 16.6667 115.45 15.984C115.066 15.2907 114.874 14.4907 114.874 13.584C114.874 12.688 115.071 11.8933 115.466 11.2C115.86 10.5067 116.399 9.97333 117.082 9.6C117.764 9.22667 118.527 9.04 119.37 9.04C120.212 9.04 120.975 9.22667 121.658 9.6C122.34 9.97333 122.879 10.5067 123.274 11.2C123.668 11.8933 123.866 12.688 123.866 13.584C123.866 14.48 123.663 15.2747 123.258 15.968C122.852 16.6613 122.298 17.2 121.594 17.584C120.9 17.9573 120.132 18.144 119.29 18.144ZM119.29 16.56C119.759 16.56 120.196 16.448 120.602 16.224C121.018 16 121.354 15.664 121.61 15.216C121.866 14.768 121.994 14.224 121.994 13.584C121.994 12.944 121.871 12.4053 121.626 11.968C121.38 11.52 121.055 11.184 120.65 10.96C120.244 10.736 119.807 10.624 119.338 10.624C118.868 10.624 118.431 10.736 118.026 10.96C117.631 11.184 117.316 11.52 117.082 11.968C116.847 12.4053 116.73 12.944 116.73 13.584C116.73 14.5333 116.97 15.2693 117.45 15.792C117.94 16.304 118.554 16.56 119.29 16.56ZM136.341 9.04C137.034 9.04 137.653 9.184 138.197 9.472C138.751 9.76 139.183 10.1867 139.493 10.752C139.813 11.3173 139.973 12 139.973 12.8V18H138.165V13.072C138.165 12.2827 137.967 11.68 137.573 11.264C137.178 10.8373 136.639 10.624 135.957 10.624C135.274 10.624 134.73 10.8373 134.325 11.264C133.93 11.68 133.733 12.2827 133.733 13.072V18H131.925V13.072C131.925 12.2827 131.727 11.68 131.333 11.264C130.938 10.8373 130.399 10.624 129.717 10.624C129.034 10.624 128.49 10.8373 128.085 11.264C127.69 11.68 127.493 12.2827 127.493 13.072V18H125.669V9.184H127.493V10.192C127.791 9.82933 128.17 9.54667 128.629 9.344C129.087 9.14133 129.578 9.04 130.101 9.04C130.805 9.04 131.434 9.18933 131.989 9.488C132.543 9.78667 132.97 10.2187 133.269 10.784C133.535 10.2507 133.951 9.82933 134.517 9.52C135.082 9.2 135.69 9.04 136.341 9.04Z" fill="#616161"/>
</svg>
